<?xml version="1.0" encoding="UTF-8"?>
<svg id="Layer_2" data-name="Layer 2" xmlns="http://www.w3.org/2000/svg" viewBox="0 0 59.84 86.39">
  <g id="Header">
    <g id="q">
      <g>
        <path d="M59.46,25.11C57.42,12.22,46.52,1.76,33.54.21,24.99-.81,16.44,1.89,10.06,7.57,3.68,13.24,0,21.39,0,29.94s3.19,15.73,9.04,21.4c2.7,2.66,4.25,6.34,4.25,10.19v3.85c0,4.25,3.5,7.75,7.75,7.75h17.72c4.25,0,7.75-3.46,7.75-7.75v-3.85c0-3.81,1.64-7.53,4.61-10.5,6.78-6.82,9.84-16.26,8.33-25.87v-.04ZM39.88,65.34c0,.62-.49,1.11-1.11,1.11h-17.72c-.62,0-1.11-.49-1.11-1.11v-3.85c0-.58-.13-1.11-.18-1.68h20.29c-.04.58-.18,1.11-.18,1.68v3.85ZM46.39,46.29c-2.04,2.04-3.59,4.39-4.7,6.87h-23.53c-1.06-2.48-2.57-4.74-4.52-6.6-4.52-4.43-7-10.32-7-16.66,0-6.65,2.84-12.98,7.8-17.37,4.3-3.85,9.7-5.89,15.42-5.89.93,0,1.91.04,2.88.18,10.1,1.2,18.56,9.3,20.11,19.32,1.15,7.49-1.2,14.84-6.47,20.16Z"/>
        <path d="M43.2,79.74h-26.58c-1.82,0-3.32,1.51-3.32,3.32s1.51,3.32,3.32,3.32h26.58c1.82,0,3.32-1.51,3.32-3.32s-1.51-3.32-3.32-3.32Z"/>
      </g>
    </g>
  </g>
</svg>