<?xml version="1.0" encoding="UTF-8"?>
<svg id="Layer_2" data-name="Layer 2" xmlns="http://www.w3.org/2000/svg" viewBox="0 0 88.68 81.89">
  <g id="Header">
    <g>
      <path d="M44.34,36.9c-10.17,0-18.45-8.27-18.45-18.45S34.17,0,44.34,0s18.45,8.28,18.45,18.45-8.27,18.45-18.45,18.45ZM44.34,4.43c-7.73,0-14.02,6.29-14.02,14.02s6.29,14.02,14.02,14.02,14.02-6.29,14.02-14.02-6.29-14.02-14.02-14.02Z"/>
      <path d="M12.29,81.89c-6.78,0-12.29-5.51-12.29-12.29s5.51-12.29,12.29-12.29,12.29,5.51,12.29,12.29-5.51,12.29-12.29,12.29ZM12.29,61.74c-4.33,0-7.86,3.53-7.86,7.86s3.53,7.86,7.86,7.86,7.86-3.53,7.86-7.86-3.53-7.86-7.86-7.86Z"/>
      <path d="M44.34,81.89c-6.78,0-12.29-5.51-12.29-12.29s5.51-12.29,12.29-12.29,12.29,5.51,12.29,12.29-5.51,12.29-12.29,12.29ZM44.34,61.74c-4.34,0-7.86,3.53-7.86,7.86s3.53,7.86,7.86,7.86,7.86-3.53,7.86-7.86-3.53-7.86-7.86-7.86Z"/>
      <path d="M76.38,81.89c-6.78,0-12.29-5.51-12.29-12.29s5.51-12.29,12.29-12.29,12.29,5.51,12.29,12.29-5.51,12.29-12.29,12.29ZM76.38,61.74c-4.34,0-7.86,3.53-7.86,7.86s3.53,7.86,7.86,7.86,7.86-3.53,7.86-7.86-3.53-7.86-7.86-7.86Z"/>
      <rect x="42.12" y="34.68" width="4.43" height="24.27"/>
      <path d="M78.6,59.52h-4.43v-10.17c0-3.41-2.77-6.18-6.18-6.18H20.69c-3.41,0-6.18,2.77-6.18,6.18v10.17h-4.43v-10.17c0-5.85,4.76-10.61,10.61-10.61h47.3c5.85,0,10.61,4.76,10.61,10.61v10.17Z"/>
    </g>
  </g>
</svg>