<?xml version="1.0" encoding="UTF-8"?>
<svg id="Layer_2" data-name="Layer 2" xmlns="http://www.w3.org/2000/svg" viewBox="0 0 77.44 77.45">
  <g id="Header">
    <g id="m">
      <path d="M76.58,72.37l-18.63-18.63c4.73-5.68,7.59-12.99,7.59-20.97C65.54,14.7,50.84,0,32.77,0S0,14.7,0,32.77s14.7,32.77,32.77,32.77c7.94,0,15.25-2.86,20.97-7.59l18.63,18.63c.6.6,1.35.87,2.11.87s1.51-.28,2.11-.87c1.15-1.15,1.15-3.06,0-4.21ZM5.96,32.77c0-14.78,12.03-26.81,26.81-26.81s26.81,12.03,26.81,26.81-12.03,26.81-26.81,26.81S5.96,47.54,5.96,32.77Z"/>
    </g>
  </g>
</svg>