<?xml version="1.0" encoding="UTF-8"?>
<svg id="Layer_2" data-name="Layer 2" xmlns="http://www.w3.org/2000/svg" viewBox="0 0 82.88 82.88">
  <g id="Header">
    <g>
      <path d="M41.44,82.88C18.59,82.88,0,64.29,0,41.44S18.59,0,41.44,0s41.44,18.59,41.44,41.44-18.59,41.44-41.44,41.44ZM41.44,8.86c-17.96,0-32.58,14.61-32.58,32.58s14.61,32.58,32.58,32.58,32.58-14.61,32.58-32.58S59.4,8.86,41.44,8.86Z"/>
      <path d="M33.09,33.11l-6.25,22.95,22.95-6.29,6.25-22.95-22.95,6.29ZM41.42,47.07c-3.1,0-5.63-2.53-5.63-5.63s2.53-5.67,5.63-5.67,5.67,2.53,5.67,5.67-2.53,5.63-5.67,5.63Z"/>
    </g>
  </g>
</svg>