<?xml version="1.0" encoding="UTF-8"?>
<svg id="Layer_2" data-name="Layer 2" xmlns="http://www.w3.org/2000/svg" viewBox="0 0 86.4 86.4">
  <g id="Header">
    <g id="g">
      <g>
        <path d="M43.2,11.08c1.82,0,3.32-1.51,3.32-3.32V3.32c0-1.82-1.51-3.32-3.32-3.32s-3.32,1.51-3.32,3.32v4.43c0,1.82,1.51,3.32,3.32,3.32Z"/>
        <path d="M83.07,39.88h-4.43c-1.82,0-3.32,1.51-3.32,3.32s1.51,3.32,3.32,3.32h4.43c1.82,0,3.32-1.51,3.32-3.32s-1.51-3.32-3.32-3.32Z"/>
        <path d="M43.2,75.32c-1.82,0-3.32,1.51-3.32,3.32v4.43c0,1.82,1.51,3.32,3.32,3.32s3.32-1.51,3.32-3.32v-4.43c0-1.82-1.51-3.32-3.32-3.32Z"/>
        <path d="M11.08,43.2c0-1.82-1.51-3.32-3.32-3.32H3.32c-1.82,0-3.32,1.51-3.32,3.32s1.51,3.32,3.32,3.32h4.43c1.82,0,3.32-1.51,3.32-3.32Z"/>
        <circle cx="43.2" cy="34.34" r="5.54"/>
        <path d="M68.67,43.2c0-5.49,4.47-9.97,9.97-9.97h1.99c-3.54-13.38-14.09-23.93-27.47-27.47v1.99c0,5.49-4.47,9.97-9.97,9.97s-9.97-4.47-9.97-9.97v-1.99c-13.38,3.54-23.93,14.09-27.47,27.47h1.99c5.49,0,9.97,4.47,9.97,9.97s-4.47,9.97-9.97,9.97h-1.99c3.54,13.38,14.09,23.93,27.47,27.47v-1.99c0-5.49,4.47-9.97,9.97-9.97s9.97,4.47,9.97,9.97v1.99c13.38-3.59,23.88-14.13,27.47-27.47h-1.99c-5.49,0-9.97-4.47-9.97-9.97ZM43.2,22.15c6.73,0,12.18,5.45,12.18,12.18s-5.45,12.18-12.18,12.18-12.18-5.45-12.18-12.18,5.45-12.18,12.18-12.18ZM58,63.89c-.49.22-.97.35-1.46.35-1.24,0-2.39-.66-2.97-1.82l-2.17-4.3c-.84-1.68-2.53-2.7-4.39-2.7h-7.53c-1.86,0-3.54,1.06-4.39,2.7l-2.17,4.3c-.84,1.64-2.79,2.3-4.47,1.46-1.64-.84-2.3-2.84-1.46-4.47l2.17-4.3c1.95-3.94,5.94-6.38,10.32-6.38h7.53c4.43,0,8.37,2.44,10.32,6.38l2.17,4.3c.84,1.64.18,3.63-1.46,4.47h-.04Z"/>
      </g>
    </g>
  </g>
</svg>