<?xml version="1.0" encoding="UTF-8"?>
<svg id="Layer_2" data-name="Layer 2" xmlns="http://www.w3.org/2000/svg" viewBox="0 0 86.4 86.4">
  <g id="Header">
    <g id="e">
      <path d="M43.2,0h0C19.36,0,0,19.36,0,43.2s19.36,43.2,43.2,43.2,43.2-19.36,43.2-43.2S67.03,0,43.2,0ZM43.2,78.82c-6.91-5.8-10.9-12.76-13.29-19.01h26.72c-3.85,9.61-10.15,16.08-13.42,19.01ZM27.91,53.17c-1.2-5.14-1.28-9.04-1.28-9.97,0-3.54.4-6.87,1.11-9.97h30.79c1.2,5.14,1.28,9.04,1.28,9.97,0,3.54-.4,6.87-1.11,9.97h-30.79ZM6.69,43.2c0-3.46.53-6.78,1.42-9.97h12.85c-.62,3.1-.97,6.42-.97,9.97,0,1.51.13,5.18,1.11,9.97h-12.98c-.89-3.19-1.42-6.51-1.42-9.97ZM43.24,7.58c6.91,5.8,10.9,12.76,13.29,19.01h-26.72c3.85-9.61,10.15-16.08,13.42-19.01ZM65.35,33.23h12.98c.89,3.19,1.42,6.51,1.42,9.97s-.53,6.78-1.42,9.97h-12.85c.62-3.1.97-6.42.97-9.97,0-1.51-.13-5.18-1.11-9.97ZM75.72,26.58h-12.1c-1.91-5.85-5.14-12.41-10.5-18.52,9.84,2.79,18.03,9.57,22.6,18.52ZM33.45,8.02c-3.85,4.39-8.11,10.59-10.81,18.56h-11.96c4.61-8.99,12.85-15.82,22.77-18.56ZM10.68,59.81h12.1c1.91,5.85,5.14,12.41,10.5,18.52-9.84-2.79-18.03-9.57-22.6-18.52ZM52.95,78.38c3.85-4.39,8.11-10.59,10.81-18.56h11.96c-4.61,8.99-12.85,15.82-22.77,18.56Z"/>
    </g>
  </g>
</svg>